o FishingRod
v 0.090000 0.000000 0.000000
v 0.083149 0.000000 0.034442
v 0.063640 0.000000 0.063640
v 0.034442 0.000000 0.083149
v 0.000000 0.000000 0.090000
v -0.034442 0.000000 0.083149
v -0.063640 0.000000 0.063640
v -0.083149 0.000000 0.034442
v -0.090000 0.000000 0.000000
v -0.083149 0.000000 -0.034442
v -0.063640 0.000000 -0.063640
v -0.034442 0.000000 -0.083149
v -0.000000 0.000000 -0.090000
v 0.034442 0.000000 -0.083149
v 0.063640 0.000000 -0.063640
v 0.083149 0.000000 -0.034442
v 0.085000 0.700000 0.000000
v 0.078530 0.700000 0.032528
v 0.060104 0.700000 0.060104
v 0.032528 0.700000 0.078530
v 0.000000 0.700000 0.085000
v -0.032528 0.700000 0.078530
v -0.060104 0.700000 0.060104
v -0.078530 0.700000 0.032528
v -0.085000 0.700000 0.000000
v -0.078530 0.700000 -0.032528
v -0.060104 0.700000 -0.060104
v -0.032528 0.700000 -0.078530
v -0.000000 0.700000 -0.085000
v 0.032528 0.700000 -0.078530
v 0.060104 0.700000 -0.060104
v 0.078530 0.700000 -0.032528
v 0.050000 0.720000 0.000000
v 0.046194 0.720000 0.019134
v 0.035355 0.720000 0.035355
v 0.019134 0.720000 0.046194
v 0.000000 0.720000 0.050000
v -0.019134 0.720000 0.046194
v -0.035355 0.720000 0.035355
v -0.046194 0.720000 0.019134
v -0.050000 0.720000 0.000000
v -0.046194 0.720000 -0.019134
v -0.035355 0.720000 -0.035355
v -0.019134 0.720000 -0.046194
v -0.000000 0.720000 -0.050000
v 0.019134 0.720000 -0.046194
v 0.035355 0.720000 -0.035355
v 0.046194 0.720000 -0.019134
v 0.035000 2.000000 0.000000
v 0.032336 2.000000 0.013394
v 0.024749 2.000000 0.024749
v 0.013394 2.000000 0.032336
v 0.000000 2.000000 0.035000
v -0.013394 2.000000 0.032336
v -0.024749 2.000000 0.024749
v -0.032336 2.000000 0.013394
v -0.035000 2.000000 0.000000
v -0.032336 2.000000 -0.013394
v -0.024749 2.000000 -0.024749
v -0.013394 2.000000 -0.032336
v -0.000000 2.000000 -0.035000
v 0.013394 2.000000 -0.032336
v 0.024749 2.000000 -0.024749
v 0.032336 2.000000 -0.013394
v 0.014000 3.300000 0.000000
v 0.012934 3.300000 0.005358
v 0.009899 3.300000 0.009899
v 0.005358 3.300000 0.012934
v 0.000000 3.300000 0.014000
v -0.005358 3.300000 0.012934
v -0.009899 3.300000 0.009899
v -0.012934 3.300000 0.005358
v -0.014000 3.300000 0.000000
v -0.012934 3.300000 -0.005358
v -0.009899 3.300000 -0.009899
v -0.005358 3.300000 -0.012934
v -0.000000 3.300000 -0.014000
v 0.005358 3.300000 -0.012934
v 0.009899 3.300000 -0.009899
v 0.012934 3.300000 -0.005358
v 0.008000 3.600000 0.000000
v 0.007391 3.600000 0.003061
v 0.005657 3.600000 0.005657
v 0.003061 3.600000 0.007391
v 0.000000 3.600000 0.008000
v -0.003061 3.600000 0.007391
v -0.005657 3.600000 0.005657
v -0.007391 3.600000 0.003061
v -0.008000 3.600000 0.000000
v -0.007391 3.600000 -0.003061
v -0.005657 3.600000 -0.005657
v -0.003061 3.600000 -0.007391
v -0.000000 3.600000 -0.008000
v 0.003061 3.600000 -0.007391
v 0.005657 3.600000 -0.005657
v 0.007391 3.600000 -0.003061
f 1 2 18 17
f 2 3 19 18
f 3 4 20 19
f 4 5 21 20
f 5 6 22 21
f 6 7 23 22
f 7 8 24 23
f 8 9 25 24
f 9 10 26 25
f 10 11 27 26
f 11 12 28 27
f 12 13 29 28
f 13 14 30 29
f 14 15 31 30
f 15 16 32 31
f 16 1 17 32
f 17 18 34 33
f 18 19 35 34
f 19 20 36 35
f 20 21 37 36
f 21 22 38 37
f 22 23 39 38
f 23 24 40 39
f 24 25 41 40
f 25 26 42 41
f 26 27 43 42
f 27 28 44 43
f 28 29 45 44
f 29 30 46 45
f 30 31 47 46
f 31 32 48 47
f 32 17 33 48
f 33 34 50 49
f 34 35 51 50
f 35 36 52 51
f 36 37 53 52
f 37 38 54 53
f 38 39 55 54
f 39 40 56 55
f 40 41 57 56
f 41 42 58 57
f 42 43 59 58
f 43 44 60 59
f 44 45 61 60
f 45 46 62 61
f 46 47 63 62
f 47 48 64 63
f 48 33 49 64
f 49 50 66 65
f 50 51 67 66
f 51 52 68 67
f 52 53 69 68
f 53 54 70 69
f 54 55 71 70
f 55 56 72 71
f 56 57 73 72
f 57 58 74 73
f 58 59 75 74
f 59 60 76 75
f 60 61 77 76
f 61 62 78 77
f 62 63 79 78
f 63 64 80 79
f 64 49 65 80
f 65 66 82 81
f 66 67 83 82
f 67 68 84 83
f 68 69 85 84
f 69 70 86 85
f 70 71 87 86
f 71 72 88 87
f 72 73 89 88
f 73 74 90 89
f 74 75 91 90
f 75 76 92 91
f 76 77 93 92
f 77 78 94 93
f 78 79 95 94
f 79 80 96 95
f 80 65 81 96
f 16 15 14 13 12 11 10 9 8 7 6 5 4 3 2 1
f 81 82 83 84 85 86 87 88 89 90 91 92 93 94 95 96
o ReelSpool
v 0.050000 0.710000 0.000000
v 0.050000 0.697821 0.061229
v 0.050000 0.663137 0.113137
v 0.050000 0.611229 0.147821
v 0.050000 0.550000 0.160000
v 0.050000 0.488771 0.147821
v 0.050000 0.436863 0.113137
v 0.050000 0.402179 0.061229
v 0.050000 0.390000 0.000000
v 0.050000 0.402179 -0.061229
v 0.050000 0.436863 -0.113137
v 0.050000 0.488771 -0.147821
v 0.050000 0.550000 -0.160000
v 0.050000 0.611229 -0.147821
v 0.050000 0.663137 -0.113137
v 0.050000 0.697821 -0.061229
v 0.310000 0.710000 0.000000
v 0.310000 0.697821 0.061229
v 0.310000 0.663137 0.113137
v 0.310000 0.611229 0.147821
v 0.310000 0.550000 0.160000
v 0.310000 0.488771 0.147821
v 0.310000 0.436863 0.113137
v 0.310000 0.402179 0.061229
v 0.310000 0.390000 0.000000
v 0.310000 0.402179 -0.061229
v 0.310000 0.436863 -0.113137
v 0.310000 0.488771 -0.147821
v 0.310000 0.550000 -0.160000
v 0.310000 0.611229 -0.147821
v 0.310000 0.663137 -0.113137
v 0.310000 0.697821 -0.061229
f 97 98 114 113
f 98 99 115 114
f 99 100 116 115
f 100 101 117 116
f 101 102 118 117
f 102 103 119 118
f 103 104 120 119
f 104 105 121 120
f 105 106 122 121
f 106 107 123 122
f 107 108 124 123
f 108 109 125 124
f 109 110 126 125
f 110 111 127 126
f 111 112 128 127
f 112 97 113 128

