o FishingFloat
v 0.025000 -0.280000 0.000000
v 0.023776 -0.280000 0.007725
v 0.020225 -0.280000 0.014695
v 0.014695 -0.280000 0.020225
v 0.007725 -0.280000 0.023776
v 0.000000 -0.280000 0.025000
v -0.007725 -0.280000 0.023776
v -0.014695 -0.280000 0.020225
v -0.020225 -0.280000 0.014695
v -0.023776 -0.280000 0.007725
v -0.025000 -0.280000 0.000000
v -0.023776 -0.280000 -0.007725
v -0.020225 -0.280000 -0.014695
v -0.014695 -0.280000 -0.020225
v -0.007725 -0.280000 -0.023776
v -0.000000 -0.280000 -0.025000
v 0.007725 -0.280000 -0.023776
v 0.014695 -0.280000 -0.020225
v 0.020225 -0.280000 -0.014695
v 0.023776 -0.280000 -0.007725
v 0.100000 -0.180000 0.000000
v 0.095106 -0.180000 0.030902
v 0.080902 -0.180000 0.058779
v 0.058779 -0.180000 0.080902
v 0.030902 -0.180000 0.095106
v 0.000000 -0.180000 0.100000
v -0.030902 -0.180000 0.095106
v -0.058779 -0.180000 0.080902
v -0.080902 -0.180000 0.058779
v -0.095106 -0.180000 0.030902
v -0.100000 -0.180000 0.000000
v -0.095106 -0.180000 -0.030902
v -0.080902 -0.180000 -0.058779
v -0.058779 -0.180000 -0.080902
v -0.030902 -0.180000 -0.095106
v -0.000000 -0.180000 -0.100000
v 0.030902 -0.180000 -0.095106
v 0.058779 -0.180000 -0.080902
v 0.080902 -0.180000 -0.058779
v 0.095106 -0.180000 -0.030902
v 0.150000 0.000000 0.000000
v 0.142658 0.000000 0.046353
v 0.121353 0.000000 0.088168
v 0.088168 0.000000 0.121353
v 0.046353 0.000000 0.142658
v 0.000000 0.000000 0.150000
v -0.046353 0.000000 0.142658
v -0.088168 0.000000 0.121353
v -0.121353 0.000000 0.088168
v -0.142658 0.000000 0.046353
v -0.150000 0.000000 0.000000
v -0.142658 0.000000 -0.046353
v -0.121353 0.000000 -0.088168
v -0.088168 0.000000 -0.121353
v -0.046353 0.000000 -0.142658
v -0.000000 0.000000 -0.150000
v 0.046353 0.000000 -0.142658
v 0.088168 0.000000 -0.121353
v 0.121353 0.000000 -0.088168
v 0.142658 0.000000 -0.046353
v 0.100000 0.180000 0.000000
v 0.095106 0.180000 0.030902
v 0.080902 0.180000 0.058779
v 0.058779 0.180000 0.080902
v 0.030902 0.180000 0.095106
v 0.000000 0.180000 0.100000
v -0.030902 0.180000 0.095106
v -0.058779 0.180000 0.080902
v -0.080902 0.180000 0.058779
v -0.095106 0.180000 0.030902
v -0.100000 0.180000 0.000000
v -0.095106 0.180000 -0.030902
v -0.080902 0.180000 -0.058779
v -0.058779 0.180000 -0.080902
v -0.030902 0.180000 -0.095106
v -0.000000 0.180000 -0.100000
v 0.030902 0.180000 -0.095106
v 0.058779 0.180000 -0.080902
v 0.080902 0.180000 -0.058779
v 0.095106 0.180000 -0.030902
v 0.035000 0.280000 0.000000
v 0.033287 0.280000 0.010816
v 0.028316 0.280000 0.020572
v 0.020572 0.280000 0.028316
v 0.010816 0.280000 0.033287
v 0.000000 0.280000 0.035000
v -0.010816 0.280000 0.033287
v -0.020572 0.280000 0.028316
v -0.028316 0.280000 0.020572
v -0.033287 0.280000 0.010816
v -0.035000 0.280000 0.000000
v -0.033287 0.280000 -0.010816
v -0.028316 0.280000 -0.020572
v -0.020572 0.280000 -0.028316
v -0.010816 0.280000 -0.033287
v -0.000000 0.280000 -0.035000
v 0.010816 0.280000 -0.033287
v 0.020572 0.280000 -0.028316
v 0.028316 0.280000 -0.020572
v 0.033287 0.280000 -0.010816
v 0.018000 0.550000 0.000000
v 0.017119 0.550000 0.005562
v 0.014562 0.550000 0.010580
v 0.010580 0.550000 0.014562
v 0.005562 0.550000 0.017119
v 0.000000 0.550000 0.018000
v -0.005562 0.550000 0.017119
v -0.010580 0.550000 0.014562
v -0.014562 0.550000 0.010580
v -0.017119 0.550000 0.005562
v -0.018000 0.550000 0.000000
v -0.017119 0.550000 -0.005562
v -0.014562 0.550000 -0.010580
v -0.010580 0.550000 -0.014562
v -0.005562 0.550000 -0.017119
v -0.000000 0.550000 -0.018000
v 0.005562 0.550000 -0.017119
v 0.010580 0.550000 -0.014562
v 0.014562 0.550000 -0.010580
v 0.017119 0.550000 -0.005562
f 1 2 22 21
f 2 3 23 22
f 3 4 24 23
f 4 5 25 24
f 5 6 26 25
f 6 7 27 26
f 7 8 28 27
f 8 9 29 28
f 9 10 30 29
f 10 11 31 30
f 11 12 32 31
f 12 13 33 32
f 13 14 34 33
f 14 15 35 34
f 15 16 36 35
f 16 17 37 36
f 17 18 38 37
f 18 19 39 38
f 19 20 40 39
f 20 1 21 40
f 21 22 42 41
f 22 23 43 42
f 23 24 44 43
f 24 25 45 44
f 25 26 46 45
f 26 27 47 46
f 27 28 48 47
f 28 29 49 48
f 29 30 50 49
f 30 31 51 50
f 31 32 52 51
f 32 33 53 52
f 33 34 54 53
f 34 35 55 54
f 35 36 56 55
f 36 37 57 56
f 37 38 58 57
f 38 39 59 58
f 39 40 60 59
f 40 21 41 60
f 41 42 62 61
f 42 43 63 62
f 43 44 64 63
f 44 45 65 64
f 45 46 66 65
f 46 47 67 66
f 47 48 68 67
f 48 49 69 68
f 49 50 70 69
f 50 51 71 70
f 51 52 72 71
f 52 53 73 72
f 53 54 74 73
f 54 55 75 74
f 55 56 76 75
f 56 57 77 76
f 57 58 78 77
f 58 59 79 78
f 59 60 80 79
f 60 41 61 80
f 61 62 82 81
f 62 63 83 82
f 63 64 84 83
f 64 65 85 84
f 65 66 86 85
f 66 67 87 86
f 67 68 88 87
f 68 69 89 88
f 69 70 90 89
f 70 71 91 90
f 71 72 92 91
f 72 73 93 92
f 73 74 94 93
f 74 75 95 94
f 75 76 96 95
f 76 77 97 96
f 77 78 98 97
f 78 79 99 98
f 79 80 100 99
f 80 61 81 100
f 81 82 102 101
f 82 83 103 102
f 83 84 104 103
f 84 85 105 104
f 85 86 106 105
f 86 87 107 106
f 87 88 108 107
f 88 89 109 108
f 89 90 110 109
f 90 91 111 110
f 91 92 112 111
f 92 93 113 112
f 93 94 114 113
f 94 95 115 114
f 95 96 116 115
f 96 97 117 116
f 97 98 118 117
f 98 99 119 118
f 99 100 120 119
f 100 81 101 120
f 20 19 18 17 16 15 14 13 12 11 10 9 8 7 6 5 4 3 2 1
f 101 102 103 104 105 106 107 108 109 110 111 112 113 114 115 116 117 118 119 120

